<svg width="180" height="180" viewBox="0 0 180 180" fill="none" xmlns="http://www.w3.org/2000/svg">
  <rect width="180" height="180" rx="37" fill="#7C3AED"/>
  <path d="M55 50C55 46.686 57.686 44 61 44H119C122.314 44 125 46.686 125 50V130C125 133.314 122.314 136 119 136H61C57.686 136 55 133.314 55 130V50Z" fill="white" fill-opacity="0.15"/>
  <path d="M62 44H112C115.314 44 118 46.686 118 50V136H62C58.686 136 56 133.314 56 130V50C56 46.686 58.686 44 62 44Z" fill="white"/>
  <path d="M68 62H106" stroke="#7C3AED" stroke-width="5" stroke-linecap="round"/>
  <path d="M68 76H106" stroke="#7C3AED" stroke-width="5" stroke-linecap="round"/>
  <path d="M68 90H92" stroke="#7C3AED" stroke-width="5" stroke-linecap="round"/>
  <path d="M118 136H62C58.686 136 56 133.314 56 130V124H118V136Z" fill="#C4B5FD"/>
</svg>
